<?xml version="1.0" standalone="no"?>
<!DOCTYPE svg PUBLIC "-//W3C//DTD SVG 20010904//EN"
 "http://www.w3.org/TR/2001/REC-SVG-20010904/DTD/svg10.dtd">
<svg version="1.0" xmlns="http://www.w3.org/2000/svg"
 width="1024.000000pt" height="1024.000000pt" viewBox="0 0 1024.000000 1024.000000"
 preserveAspectRatio="xMidYMid meet">
<metadata>
Created by potrace 1.11, written by Peter Selinger 2001-2013
</metadata>
<g transform="translate(0.000000,1024.000000) scale(0.100000,-0.100000)"
fill="#000000" stroke="none">
<path d="M4830 9599 c-1182 -75 -2297 -623 -3081 -1517 -1310 -1492 -1485
-3663 -432 -5347 283 -451 678 -881 1107 -1204 390 -294 834 -525 1291 -675
149 -48 297 -90 356 -101 l36 -7 6 273 c4 150 7 399 7 553 0 314 -8 373 -72
543 -78 208 -177 341 -493 663 -467 478 -632 665 -760 860 -209 318 -324 624
-382 1015 -24 167 -24 515 1 675 67 432 227 788 512 1144 93 116 285 314 422
435 l82 73 0 -1419 0 -1419 841 -489 c463 -270 845 -489 849 -488 4 1 384 221
844 489 l836 487 0 1418 c0 781 3 1419 8 1419 15 0 241 -201 337 -301 347
-359 568 -771 655 -1223 39 -206 44 -262 45 -496 0 -252 -12 -365 -61 -570
-75 -319 -240 -651 -458 -925 -75 -94 -348 -385 -641 -685 -133 -135 -270
-285 -306 -333 -115 -153 -196 -334 -240 -527 -21 -96 -25 -368 -12 -893 l6
-279 36 7 c57 10 274 73 390 112 969 327 1820 1000 2364 1868 935 1495 910
3408 -65 4868 -895 1342 -2421 2098 -4028 1996z m1048 -3169 l752 -434 0 -876
0 -876 -751 -434 c-414 -238 -757 -433 -763 -433 -6 0 -350 195 -763 434
l-753 434 0 875 0 875 757 437 c417 240 760 435 763 434 3 -2 344 -198 758
-436z"/>
<path d="M4895 6220 c-234 -50 -422 -155 -586 -328 -134 -139 -226 -302 -276
-489 -25 -89 -27 -114 -27 -283 0 -169 2 -194 27 -283 30 -112 95 -256 157
-347 56 -82 176 -208 259 -271 91 -69 267 -154 386 -186 92 -25 115 -27 285
-27 169 0 194 2 283 27 112 30 256 95 347 157 82 56 208 176 271 259 69 91
154 267 186 386 25 92 27 115 27 285 0 170 -2 193 -27 285 -32 119 -117 295
-186 386 -63 83 -189 203 -271 259 -92 62 -236 127 -347 157 -137 36 -375 42
-508 13z m430 -46 c607 -116 990 -724 835 -1325 -103 -399 -422 -699 -835
-784 -105 -21 -305 -21 -410 0 -321 66 -590 265 -741 549 -86 162 -124 316
-124 506 0 190 38 344 124 506 221 415 686 637 1151 548z"/>
<path d="M5005 5960 c-346 -54 -616 -297 -706 -635 -16 -61 -21 -109 -21 -205
0 -96 5 -144 21 -205 101 -379 425 -634 811 -638 246 -3 453 84 623 262 158
166 231 348 231 581 0 133 -15 214 -60 321 -104 251 -332 444 -593 503 -90 21
-229 28 -306 16z"/>
</g>
</svg>
